<svg xmlns="http://www.w3.org/2000/svg" width="1480" height="420" viewBox="0 0 1480 420">
<defs><linearGradient id="g" x1="20%" y1="0%" x2="82%" y2="100%">
  <stop offset="0" stop-color="#4ED17A"/><stop offset="0.5" stop-color="#27A95A"/><stop offset="1" stop-color="#147A45"/></linearGradient></defs>
<g transform="translate(20,20) scale(0.74)">
<path d="M256 64 C 360 92 436 175 432 252 C 430 348 348 416 256 458 C 164 416 82 348 80 252 C 76 175 152 92 256 64 Z" fill="url(#g)"/>
<path d="M256 168 C 292 214 226 246 258 296 C 286 340 236 360 256 402" fill="none" stroke="#fff" stroke-width="22" stroke-linecap="round" stroke-linejoin="round"/>
<path d="M232 188 L256 162 L280 188" fill="none" stroke="#fff" stroke-width="22" stroke-linecap="round" stroke-linejoin="round"/>
<circle cx="256" cy="402" r="26" fill="#F5A623" stroke="#fff" stroke-width="8"/></g>
<text x="450" y="268" font-family="Montserrat, Poppins, 'Segoe UI', Arial, sans-serif" font-size="200" font-weight="800" letter-spacing="-6">
<tspan fill="#1F6F4A">Eco</tspan><tspan fill="#27C265">Track</tspan></text>
</svg>